<?xml version="1.0" encoding="utf-8"?>
<!-- Generator: Adobe Illustrator 23.0.6, SVG Export Plug-In . SVG Version: 6.00 Build 0)  -->
<svg version="1.1" id="Layer_1" xmlns="http://www.w3.org/2000/svg" xmlns:xlink="http://www.w3.org/1999/xlink" x="0px" y="0px"
	 viewBox="0 0 109.8 128.4" style="enable-background:new 0 0 109.8 128.4;" xml:space="preserve">
<style type="text/css">
	.st0{fill:#FFFFFF;}
</style>
<g>
	<path class="st0" d="M84.6,86l-23.5,20.2C69.2,100.2,77.4,93.2,84.6,86z"/>
	<path class="st0" d="M68.8,11.4L67.9,11c0,0-2.4-1.2-6.3-2.7l10.9,12.8l-7.1,29.8l30.6-2.2l10.1,11.8c0.3-0.4,0.5-0.9,0.8-1.3
		C122.8,32.4,68.8,11.4,68.8,11.4z"/>
	<path class="st0" d="M70,69.3l-28.2,1.9l6.4-27.4l-0.1-0.2L9.5,77L0.9,67c1.2,26,6.7,50.8,17.1,55.4l1.5,0.6
		c5.6,2.4,14.4-0.1,24.5-5.6l-12.5-14.6l38.6-33.3L70,69.3z M31.6,85.3l-5.1,12.1l-4.3-5.1l3.4-7l-7.4,2.3l-4.3-5.1l12.7-3.2
		l3.6-12.2l4.3,5.1l-2,7.1l7.7-1l4.3,5.1L31.6,85.3z"/>
	<path class="st0" d="M5.3,14.8C2.3,25,0.7,40,0.7,55.5L57.4,6.7C41.2,0.8,11.6-6.6,5.3,14.8z"/>
	<path class="st0" d="M10.7,57l-3.1,2.7c-0.1,0.1-0.3,0.3-0.5,0.5c-0.2,0.2-0.3,0.4-0.3,0.5c0.3,0.4,0.6,0.7,1,1.2l2.7-2.4l2.9,3.4
		l-2.1,1.8c-0.3,0.3-0.3,0.7,0,1.1l3.4,3.9l-3.4,3l-6.7-7.8l-4.3-4.8l7-6.1L9.9,56L10.7,57z M1.8,59.6l-0.1-0.1l-0.1,0.1L1.8,59.6
		L1.8,59.6z M2.8,60.4L2.8,60.4l-0.1,0.2l0.1,0L2.8,60.4z M3.8,60.5L3.8,60.5l-0.1,0.1l0.1,0.1L3.8,60.5z M4.9,58.9l-0.1,0l0,0.1
		L4.9,58.9L4.9,58.9z M6.7,55.2l-0.2-0.1l0,0.1L6.7,55.2L6.7,55.2z M4.8,59.8L4.8,59.8l-0.2,0l0.1,0.1L4.8,59.8z M5.8,58.1l-0.2-0.1
		l0,0.1L5.8,58.1L5.8,58.1z M4,62c0,0-0.1,0-0.1,0c0,0,0,0.1,0,0.1C3.9,62.2,4,62.3,4,62.3C4,62.3,4,62.2,4,62z M4,63.1l-0.1-0.2
		L3.8,63L4,63.1L4,63.1z M5.6,59.7l-0.2-0.2c-0.1,0.1-0.1,0.2-0.1,0.3L5.6,59.7z M6.2,58L6.2,58l-0.1,0.2l0.1,0L6.2,58z M7.2,55.7
		L7.2,55.7l-0.1,0L7.2,55.7L7.2,55.7z M5.6,59.4L5.6,59.4l0,0.2l0.1,0L5.6,59.4z M4.9,61.3l-0.2,0.2c0,0,0.1,0,0.1,0.1
		c0.1,0,0.1,0,0.1,0C4.9,61.5,4.9,61.4,4.9,61.3z M4.8,62C4.7,62,4.6,62,4.5,62c0,0,0,0.1,0,0.2C4.6,62.1,4.7,62,4.8,62z M7.8,55.5
		l-0.1-0.1l-0.1,0.1L7.8,55.5L7.8,55.5z M4.5,62.6c0,0,0,0.1,0,0.2c0,0,0,0-0.1,0.1c0,0-0.1,0-0.1,0.1c0,0,0,0.1,0,0.2
		c0.1,0.1,0.2,0.1,0.3,0.2C4.7,62.9,4.6,62.7,4.5,62.6C4.6,62.7,4.6,62.7,4.5,62.6z M5.2,61.4l-0.1,0l0,0.1L5.2,61.4L5.2,61.4z
		 M5.7,60.9L5.7,60.9l-0.1,0.2l0.1,0L5.7,60.9z M5.6,61.1c-0.1,0.1-0.1,0.1-0.2,0.1c0,0,0.1,0,0.1,0.1c0.1,0,0.1,0.1,0.1,0.1
		C5.7,61.3,5.7,61.2,5.6,61.1z M6.9,58.5L6.9,58.5l0,0.2l0.1,0L6.9,58.5z M6.1,61.1C6,61.1,6,61,5.9,61c0,0,0,0.1,0,0.2
		c0,0.1,0,0.1,0,0.2C6,61.3,6,61.2,6.1,61.1z M7.4,59C7.3,59,7.2,58.9,7,58.9l0.2,0.2C7.2,59.1,7.3,59,7.4,59z M6.3,61.8
		c0,0,0,0-0.1,0.1c0,0.1-0.1,0.1-0.1,0c0,0,0,0,0.1,0c0.1,0.1,0.1,0.1,0.1,0.1C6.3,62,6.3,61.9,6.3,61.8z M6.1,62.9L6.1,62.9L5.9,63
		L6,63.1L6.1,62.9z M6.4,62.8l-0.1-0.1l-0.1,0.1L6.4,62.8L6.4,62.8z M6.6,61.8L6.6,61.8L6.6,62l0.1,0L6.6,61.8z M6.3,63.6
		c0,0-0.1,0.1-0.2,0.1c0,0,0-0.1,0-0.2l-0.1,0.1c-0.1,0.1-0.1,0.1-0.2,0.2C5.8,64,5.9,64,5.8,64c0.2,0,0.2,0,0.2,0
		c0,0-0.1-0.1-0.1-0.2L6.3,63.6z M6.1,64.4l-0.1-0.2c0,0,0,0.1,0,0.2C6,64.4,6,64.4,6.1,64.4z M7,63.1L6.9,63L6.9,63L7,63.1L7,63.1z
		 M6.4,64.6l-0.2,0l0,0.1L6.4,64.6L6.4,64.6z M6,65.7L6,65.7l-0.1-0.1l0.1-0.1L6,65.7z M6.8,64.2L6.8,64.2l0,0.2l0.1,0L6.8,64.2z
		 M7,64.1L7,64.1l-0.1-0.1L6.9,64L7,64.1z"/>
	<path class="st0" d="M25.3,53.3c0.2,0.2,0.3,0.5,0.4,0.7c0,0,0.1,0,0.1-0.1c0,0.1,0.1,0.3,0.2,0.5c0.7,0.9,0.9,2.1,0.7,3.4
		c-0.2,1.3-0.6,2.2-1.2,2.9c0,0,0,0-0.1,0.1c0,0.1-0.1,0.1-0.1,0.1c0,0-0.1,0.1-0.3,0.3c-0.2,0.2-0.3,0.3-0.3,0.3
		c-0.6,0.5-1,0.7-1.3,0.8l0,0.2c-1.4,0.6-2.7,0.8-4.1,0.5C18,62.7,17,62,16.1,61c-0.4-0.4-0.7-0.9-0.9-1.4c-0.1-0.2-0.1-0.3,0-0.5
		C15.1,59,15,59,15,58.8c-0.5-2.5,0.1-4.5,1.8-6c0.5-0.5,1.1-0.8,1.7-1.1c0.1-0.1,0.4-0.2,0.9-0.2c0.6-0.1,1-0.2,1.4-0.2
		c0.5,0,1,0.1,1.4,0.3c0,0,0.1,0,0.2,0c0,0,0.2,0.1,0.3,0.2c0.2,0.1,0.3,0.1,0.3,0.2c0,0,0.1,0,0.3,0c0.1,0,0.2,0.1,0.2,0.2
		c0,0,0.1,0,0.2,0c0,0,0.1,0.1,0.2,0.2c0,0,0.1,0.2,0.3,0.6c0-0.1,0.1-0.1,0.1-0.1c0,0,0-0.1,0-0.2c0.1,0,0.2,0,0.4,0.2
		c0.1,0.1,0.2,0.2,0.2,0.2C24.9,52.9,25.1,53,25.3,53.3z M15.6,56.4l-0.1,0l0,0.1L15.6,56.4L15.6,56.4z M15.4,58.7L15.4,58.7l-0.2,0
		l0.1,0.1L15.4,58.7z M19.9,51.8l-0.2,0.1l0.1,0.1L19.9,51.8L19.9,51.8z M16.6,60.6c-0.1,0-0.3-0.1-0.4-0.1c0,0,0.1,0.1,0.1,0.1
		c0.1,0,0.1,0.1,0.1,0.1c0,0,0.1-0.1,0.1-0.1C16.5,60.6,16.6,60.6,16.6,60.6z M22.4,55.8c-0.3-0.4-0.8-0.6-1.3-0.6
		c-0.6-0.1-1.1,0.1-1.6,0.5C19,56,18.8,56.5,18.7,57c-0.1,0.6,0.1,1.1,0.4,1.5c0.2,0.2,0.4,0.4,0.8,0.5c0.3,0.1,0.6,0.2,0.7,0.2
		c0.4,0,0.7,0,0.8-0.1c0,0,0.1-0.1,0.2-0.1c0.1,0,0.2-0.1,0.2-0.1c0.1,0,0.1-0.1,0.2-0.2c0.1-0.1,0.1-0.1,0.1-0.1
		c0.4-0.3,0.6-0.8,0.6-1.4C22.8,56.6,22.7,56.1,22.4,55.8z M21.3,51.6L21.3,51.6l-0.1,0L21.3,51.6L21.3,51.6z M22.2,51.9L22.2,51.9
		l-0.3,0L22,52L22.2,51.9z M20,59.2l-0.1,0l0,0.1L20,59.2L20,59.2z M23.5,54.2c-0.1-0.1-0.2-0.1-0.2-0.1c0,0.1,0,0.2,0,0.2
		C23.4,54.3,23.5,54.3,23.5,54.2z M23.8,52.9c0,0,0,0.1-0.1,0.3c0.1,0,0.2,0,0.2,0c0,0,0-0.1-0.1-0.1C23.9,53,23.9,53,23.8,52.9z
		 M23.1,61L23,61l0,0.1L23.1,61L23.1,61z M23,62.4l-0.1,0.1l-0.1-0.1L23,62.4L23,62.4z"/>
	<path class="st0" d="M38.3,49.2c-0.2,0.5-0.4,0.8-0.6,0.9c0,0-0.3,0.3-0.9,0.7c-0.6,0.5-0.9,0.7-0.9,0.7c-0.3,0.3-1.1,0.7-2.4,1.2
		c-1.4,0.6-2.9,0.6-4.6,0.1c-1.2-0.3-2.2-0.8-2.8-1.4c-0.1-0.1-0.4-0.3-0.7-0.5c-0.4-0.4-0.6-0.7-0.8-0.9c-0.2-0.2-0.3-0.3-0.2-0.2
		c-0.5-0.6-0.9-1.3-1.3-2.3c-0.1-0.3-0.2-0.6-0.4-1.1c-0.1-0.7-0.2-1.3-0.2-1.8c0-0.3,0-0.7,0.1-1.3c0-0.2,0.1-0.5,0.1-0.6
		c0.5-1.7,1.3-2.9,2.3-3.8c0.4-0.3,1.1-0.8,2.2-1.6l2.3,2.4c0.2,0.2,0.5,0.6,0.8,1.1c-0.2,0.1-0.6,0.2-0.9,0.4
		c-0.5,0.3-0.9,0.6-1.3,0.9c0,0,0,0.1,0,0.2c-0.6,0.5-0.9,1.4-0.9,2.7c0,0.2,0.1,0.6,0.2,1.1c0,0,0,0.1,0,0.3c0.3,0.5,0.5,0.8,0.6,1
		c0.2,0.2,0.6,0.5,1.1,0.8c0.5,0.3,0.8,0.5,0.9,0.5c0.3,0,0.8,0,1.3,0c0.1,0,0.2-0.1,0.4-0.1c0,0,0,0.1,0,0.1c0,0.1,0,0.1,0,0.1
		c0,0,0,0,0.1,0.1c0,0,0-0.1,0-0.2c0-0.1,0.1-0.2,0.1-0.2c0,0,0.2-0.1,0.8-0.3c0,0,0.1,0.1,0.1,0.1c-0.1,0.2-0.1,0.3,0,0.5l0.1,0.1
		c0,0-0.1,0-0.3,0c0,0.1-0.1,0.2-0.1,0.4c0.1,0,0.2,0,0.2-0.1l0.1,0.1c0,0,0,0.1-0.1,0.2l-0.1-0.1c0,0-0.1,0.1-0.1,0.2
		c0.1,0,0.2,0,0.2,0.1c0,0-0.1,0-0.1,0l0,0.1c0.1,0,0.1,0.1,0.3,0.1c0,0,0,0,0.1-0.1c0,0,0,0,0,0c0,0,0,0.1,0,0.2c0,0,0.1,0,0.2,0
		l0.2,0.3c0,0,0,0-0.1,0c-0.1,0-0.1,0-0.1,0c0,0,0,0,0,0.1c0,0,0,0,0,0.1l-0.2,0c0,0.1,0,0.3,0,0.6l0.3,0.3c0-0.1,0.1-0.1,0.1-0.1
		c0-0.1-0.1-0.2-0.1-0.3s0-0.2,0.1-0.3c0,0,0.1,0.1,0.1,0.2c0,0.1,0.1,0.2,0.1,0.2c0.1,0,0.2,0,0.4,0c0-0.1,0-0.1,0-0.2
		c0-0.1,0-0.1,0-0.1c0,0,0,0.1,0.1,0.2c0.2,0.2,0.3,0.2,0.4,0.1c0.1-0.1,0.1-0.1,0.2-0.2c0,0.1,0.1,0.1,0.1,0.2
		c0.1,0.1,0.2,0.1,0.3,0.1c0-0.1,0.1-0.2,0.1-0.3l-0.2-0.2c0,0,0,0.1,0,0.2l-0.2-0.2c0.2,0,0.3,0,0.4,0c0,0,0.1,0.1,0.1,0.3
		c0,0,0.1,0,0.1,0c0-0.1,0-0.2,0.1-0.3c-0.1,0-0.2-0.1-0.4-0.2c0,0,0.1,0,0.2,0c0.1-0.1,0.1-0.3,0-0.4c0,0,0.1,0.1,0.1,0.2
		c0,0.1,0.1,0.1,0.1,0.2c0,0,0.1,0,0.1-0.1c0,0,0-0.1,0-0.1c0,0,0.1,0.1,0.2,0.2c0.1-0.1,0.1-0.2,0-0.3c0,0,0,0,0.1,0
		c0,0,0.1,0,0.1-0.1c0-0.1-0.1-0.1-0.2,0c0.1-0.1,0.2-0.2,0.2-0.3c0.1,0.1,0.1,0.1,0.2,0.2c0-0.1,0-0.2-0.1-0.3c0,0,0.1,0,0.1,0
		c0,0,0.1,0,0.1,0c0-0.3,0.1-0.6,0.2-0.7c0,0,0.1,0,0.1,0s0,0,0,0l0-0.4c-0.1,0-0.2,0-0.4,0c0,0,0-0.1,0.1-0.1l0-0.2
		c0,0,0.1,0.1,0,0.2c0,0,0.2-0.1,0.5-0.2l0.2,0.3c-0.2,0.2-0.4,0.6-0.7,1.1c0.1,0,0.2,0,0.3,0.1c0-0.1,0-0.2-0.1-0.3
		c0.2-0.2,0.3-0.5,0.6-0.8c0.1,0.1,0.2,0.2,0.3,0.3C38.1,49,38.2,49.1,38.3,49.2z M23.7,43.2L23.7,43.2l0,0.2l0.1,0L23.7,43.2z
		 M28,41.4L28,41.4l-0.2,0.1l0.1,0.1L28,41.4z M28.1,40.8c-0.1,0.1-0.2,0.3-0.1,0.5l0.2-0.2C28.2,41,28.2,40.8,28.1,40.8z
		 M28.4,40.9L28.4,40.9L28.3,41l0.1,0L28.4,40.9z M28.2,41.1c-0.1,0.2-0.1,0.3-0.1,0.3c0.1-0.1,0.2-0.1,0.2-0.1L28.2,41.1z
		 M27.4,46.1c0,0-0.1,0-0.2,0c0,0,0,0.1-0.1,0.1c0,0,0.1,0,0.2,0C27.4,46.2,27.4,46.2,27.4,46.1z M29.6,49.6L29.6,49.6l-0.2,0
		l0.1,0.1L29.6,49.6z M30,49.8l0,0.2c0,0,0.1,0,0.2,0C30.2,50,30.1,49.9,30,49.8z M30.6,50.5l-0.1-0.1l-0.1,0.1L30.6,50.5L30.6,50.5
		z M31.6,49.6l-0.2-0.2l-0.1,0.1L31.6,49.6L31.6,49.6z M31.9,48.8c0,0-0.1-0.1-0.3-0.1c0,0.1,0.1,0.3,0.1,0.5c0,0.2-0.1,0.3-0.1,0.4
		l0.2,0.2c0,0,0.1-0.1,0.1-0.1c0-0.4,0.1-0.7,0.1-0.7c0,0,0,0,0-0.1C32,48.9,32,48.8,31.9,48.8z M31.3,49.8
		c-0.1,0.1-0.1,0.2-0.1,0.3c0,0,0.1-0.1,0.2-0.1C31.3,50.1,31.2,50,31.3,49.8z M31.5,49.3L31.5,49.3l0,0.2l0.1,0L31.5,49.3z
		 M32.2,48.6L32.2,48.6l-0.1,0L32.2,48.6L32.2,48.6z M32.5,48.9c-0.1-0.1-0.2-0.1-0.3-0.1c0,0.1,0,0.3-0.1,0.5
		c0.1,0.1,0.2,0.2,0.2,0.4c-0.1,0.1-0.2,0.2-0.1,0.5c0.1-0.2,0.1-0.4,0.2-0.4c0.1-0.1,0.1-0.1,0.1,0c-0.1-0.1-0.1-0.1,0-0.2
		c0.1,0,0.3,0,0.4,0.1c-0.4-0.2-0.5-0.3-0.4-0.2c0,0,0-0.1,0-0.1c0,0,0,0-0.1,0c0,0-0.1,0-0.2,0c0,0,0,0,0-0.1c0,0,0,0,0-0.1
		C32.4,49.1,32.4,49,32.5,48.9z M31.9,49.8l-0.2,0.1c0,0,0.1,0.1,0.1,0.2l0.1,0C31.8,50.1,31.8,50,31.9,49.8z M31.9,50.4l-0.1-0.2
		l-0.1,0.1l0.1,0.2L31.9,50.4z M32.8,48.6l-0.2-0.2c0,0.2,0,0.3,0.1,0.4L32.8,48.6z M31.9,50.7l-0.1-0.2l-0.1,0.1L31.9,50.7
		L31.9,50.7z M31.9,50.8l-0.2,0c0,0-0.1,0.1-0.1,0.1c0.1,0,0.2,0,0.3,0.1C31.9,50.9,31.9,50.8,31.9,50.8z M32.5,49.2
		c0,0,0,0.1-0.1,0.1c0,0,0.1,0,0.2,0C32.6,49.4,32.5,49.3,32.5,49.2C32.5,49.2,32.5,49.2,32.5,49.2z M33.6,47.5l0.2,0.3
		c-0.1-0.1-0.1-0.1-0.2,0c-0.1,0.1-0.1,0.2,0,0.4c-0.1,0-0.2,0-0.3-0.1c0,0.1,0,0.2-0.1,0.2c0-0.1-0.1-0.1-0.2,0
		c0-0.1,0-0.2,0.1-0.3c-0.1,0-0.1,0-0.1,0c0,0,0.1-0.1,0.2-0.1c0.1,0,0.2-0.1,0.2-0.1C33.6,47.7,33.6,47.6,33.6,47.5z M32.3,50.1
		c-0.1,0.1-0.1,0.3-0.2,0.5c0,0.3,0.1,0.5,0.3,0.8c0,0,0.1,0,0.2,0l0-0.2c0,0,0.1,0,0.1,0c-0.1,0-0.2,0-0.3,0c0-0.1,0-0.1-0.1-0.2
		c-0.1-0.1-0.1-0.1-0.2,0l0.1,0c0.1,0,0.1,0,0.2,0.1l0-0.1c0,0-0.1,0-0.2,0c-0.1-0.1-0.1-0.2-0.1-0.4C32.3,50.2,32.3,50.1,32.3,50.1
		z M32.9,49.7c0,0-0.1,0-0.1-0.1c0,0,0,0.1,0,0.2c0,0.1,0,0.2,0,0.2c-0.1,0.1-0.1,0.1-0.1,0c0-0.1,0-0.3,0-0.4l-0.1-0.2
		c0,0.4,0,0.6,0,0.7l-0.1,0.1l0.5,0.6c0.2-0.1,0.2-0.3,0.2-0.5c0,0-0.1,0-0.2-0.1l0,0.2c0,0-0.1,0-0.2,0c0-0.1,0-0.2,0-0.4
		c0,0.1,0.1,0.1,0.2,0C32.9,50.2,32.9,50,32.9,49.7z M33.5,47.9L33.5,47.9L33.4,48l0.1,0.1L33.5,47.9z M33.3,48.4
		c0,0.1,0.1,0.2,0.1,0.3c0.1,0,0.1,0.1,0.2,0.1c0,0.2,0,0.4,0,0.6l-0.1,0.1c0-0.2,0-0.4,0-0.7c-0.1-0.1-0.1-0.1-0.1,0
		c0,0-0.1,0.1-0.1,0.1c0,0,0,0,0,0C33.3,48.7,33.3,48.6,33.3,48.4z M33.9,48.3c0,0.1,0,0.3,0,0.4c0,0,0,0,0-0.1c0-0.1,0-0.1-0.1-0.1
		c-0.1-0.1-0.2-0.1-0.4-0.1l0.1-0.1C33.6,48.4,33.8,48.4,33.9,48.3z M35.5,46.3c0,0,0,0.1,0,0.1c0,0.1,0,0.1,0,0.1c0,0-0.1,0-0.2,0
		c0,0.1,0,0.2,0,0.2c0,0-0.1,0-0.2,0.1c0.1-0.1,0.1-0.3,0.1-0.4c0,0-0.1,0-0.1,0.1c-0.1,0.1-0.1,0.1-0.1,0.1c0,0.1,0,0.2,0.1,0.3
		c-0.1-0.1-0.1-0.1-0.2-0.1c0,0,0,0,0,0c0,0-0.1,0-0.1,0c0.1-0.2,0.1-0.3,0-0.5l-0.1,0l-0.2,0.2c0-0.2,0-0.4,0.1-0.4
		c0,0,0.1,0,0.1,0c0,0,0,0,0,0c0.1-0.1,0.1-0.2,0.1-0.5c0.1,0,0.1,0.1,0.2,0.1c0.2,0.2,0.2,0.4,0,0.5c0,0,0.1,0,0.2-0.1
		C35.4,46.3,35.5,46.3,35.5,46.3z M33.2,50.3L33.2,50.3L33,50.4l0.1,0L33.2,50.3z M34.9,47.1L34.9,47.1L34.7,47l0.1-0.1L34.9,47.1z
		 M33.7,49.5l0,0.2l-0.1,0L33.7,49.5L33.7,49.5z M34.7,47.1c0.1,0.1,0.1,0.1,0.1,0.2c0,0-0.1,0-0.2,0C34.6,47.3,34.7,47.2,34.7,47.1
		C34.7,47.2,34.7,47.1,34.7,47.1z M34.3,48.7L34.2,49l-0.1,0l0-0.3L34.3,48.7z M35.5,48.2c0,0,0,0.1,0,0.3l0.1,0.1c0,0,0,0-0.1,0
		c-0.1,0-0.1,0-0.1,0c0,0,0.1,0.1,0.2,0.3L35.4,49c0,0,0-0.1,0-0.2c0,0-0.1-0.1-0.2-0.2c0,0,0.1,0,0.1,0c0-0.1-0.2-0.2-0.4-0.3
		c0,0.1,0,0.3-0.1,0.6c0-0.1-0.1-0.1-0.1-0.1c0,0-0.1,0-0.2,0l-0.3-0.4c0,0,0.1-0.1,0.1,0c0-0.3,0.1-0.5,0.2-0.7c0,0.1,0,0.2,0,0.3
		c0,0.1,0,0.1,0,0.1l0.1,0c0.1,0.1,0.3,0.2,0.4,0.1c0.1,0.1,0.1,0.2,0,0.3C35.3,48.3,35.4,48.3,35.5,48.2z M33.2,51.2
		c-0.1,0.1-0.1,0.2-0.1,0.3c0.1,0.1,0.2,0.1,0.2,0C33.3,51.3,33.3,51.2,33.2,51.2z M35.3,47.4c0,0,0,0.1-0.1,0.2L35,47.3
		C35,47.3,35.1,47.4,35.3,47.4z M34.5,48.7c0.1,0.1,0.1,0.2,0.1,0.2C34.6,49,34.5,49,34.4,49C34.5,48.9,34.5,48.8,34.5,48.7z
		 M34.2,49.4l0,0.2l-0.1,0L34.2,49.4L34.2,49.4z M34.2,49.9L34,50.1l0-0.2C34,49.9,34.1,49.9,34.2,49.9z M34.3,50.1
		c0,0,0,0.1,0.1,0.3c-0.1,0.1-0.1,0.1-0.2,0.1L34,50.8c0-0.1-0.1-0.3-0.1-0.5l0.2,0C34.2,50.2,34.2,50.1,34.3,50.1z M36.3,47.3
		c0,0,0,0.1-0.1,0.1c-0.1-0.1-0.1-0.1-0.2-0.1c0,0,0,0,0,0.1c0,0,0,0,0,0.1c0,0-0.1,0-0.1,0c0-0.1-0.1,0-0.1,0c0,0-0.1,0.1-0.1,0.1
		c0,0,0,0,0,0c0,0,0,0-0.1-0.1c0,0,0-0.1,0.1-0.1c-0.1,0-0.1,0-0.2,0.1c0,0,0-0.1,0.1-0.3c0-0.2,0.1-0.3,0.1-0.3
		c0.1,0.1,0.2,0.1,0.3,0.1l0.1,0.1c-0.1,0-0.1,0.1-0.2,0.3c0.1,0,0.2,0,0.4-0.1L36.3,47.3z M35.7,47.7c-0.1,0-0.1,0-0.3,0.1
		c0-0.1,0-0.2,0-0.3L35.7,47.7z M34.5,50l0.1,0.2l-0.1,0L34.5,50L34.5,50z M34.9,49.5L34.9,49.5l-0.2,0l0-0.1L34.9,49.5z M36,48.1
		c-0.1,0-0.2,0-0.2,0c0,0,0-0.1,0-0.1c0-0.1,0-0.1,0-0.1C35.9,47.9,36,48,36,48.1z M34.7,50.6L34.7,50.6l-0.1,0.1l0-0.1L34.7,50.6z
		 M34.8,50.3l0,0.2l-0.2,0c0,0,0,0,0.1-0.1C34.7,50.4,34.8,50.3,34.8,50.3z M36.2,47.6c0,0.1,0.1,0.2,0.1,0.4c0,0-0.1,0.1-0.1,0.3
		c0-0.1,0-0.2,0-0.4c0,0-0.1-0.1-0.1-0.1c-0.1,0-0.1-0.1-0.1-0.1C36,47.7,36,47.7,36.2,47.6z M35.4,49.1c0,0.2,0,0.4,0,0.4
		c0,0,0,0,0.1-0.1c0.1,0,0.2,0.1,0.2,0.2c-0.1,0-0.2,0-0.3,0.1l-0.2-0.2C35.3,49.4,35.3,49.2,35.4,49.1z M35.5,49.9
		C35.4,49.9,35.4,49.9,35.5,49.9c-0.1,0.1-0.2,0.2-0.2,0.2c0,0,0,0.1,0,0.1c0,0,0,0.1,0,0.1c-0.1-0.2-0.2-0.3-0.2-0.3
		c0.1-0.1,0.1-0.1,0.1-0.3c0.1,0,0.1-0.1,0.3-0.1c0,0-0.1,0-0.1,0c0,0.1,0,0.1,0,0.1C35.3,49.9,35.4,49.9,35.5,49.9z M36,48.1
		l0.1,0.2c0,0-0.1,0-0.2,0c0,0.1,0,0.2,0,0.3l-0.2-0.2C35.8,48.3,35.9,48.2,36,48.1z M36.6,47.8c0,0.1,0,0.2,0,0.3
		c-0.1,0-0.1,0-0.2-0.1c-0.1-0.1-0.1-0.2,0-0.4C36.4,47.8,36.5,47.9,36.6,47.8z M36.2,48.5l0,0.2l-0.1,0L36.2,48.5L36.2,48.5z
		 M36,49.1L36,49.1l-0.2,0l0.1-0.1L36,49.1z M36.1,48.8L36.1,48.8L36,48.9l0-0.1L36.1,48.8z M36.9,47.9l0,0.2l-0.1,0L36.9,47.9
		L36.9,47.9z M36.7,48.7l-0.1,0.4l-0.1,0l0.1-0.4L36.7,48.7z M37.1,48l0,0.2l-0.1,0L37.1,48L37.1,48z M36.3,50.6
		c-0.1,0-0.2,0.1-0.4,0.1C36,50.8,36,50.8,36,51c0,0,0,0,0.1,0c0.1,0,0.1,0,0.1,0C36.3,50.7,36.3,50.6,36.3,50.6z M36.6,50.2
		l-0.2-0.1c0,0.1-0.1,0.2-0.1,0.3c0,0,0.1,0,0.3,0C36.6,50.4,36.6,50.3,36.6,50.2z M36.7,49.7L36.7,49.7l0,0.3l0.1,0L36.7,49.7z"/>
	<path class="st0" d="M44.8,36.4c0.2,0.2,0.3,0.5,0.4,0.7c0,0,0.1,0,0.1-0.1c0,0.1,0.1,0.3,0.2,0.5c0.7,0.9,0.9,2.1,0.7,3.4
		c-0.2,1.3-0.6,2.2-1.2,2.9c0,0,0,0-0.1,0.1c0,0.1-0.1,0.1-0.1,0.1c0,0-0.1,0.1-0.3,0.3c-0.2,0.2-0.3,0.3-0.3,0.3
		c-0.6,0.5-1,0.7-1.3,0.8l0,0.2c-1.4,0.6-2.7,0.8-4.1,0.5c-1.3-0.3-2.3-0.9-3.2-1.9c-0.4-0.4-0.7-0.9-0.9-1.4
		c-0.1-0.2-0.1-0.3,0-0.5c-0.1-0.1-0.2-0.2-0.2-0.3c-0.5-2.5,0.1-4.5,1.8-6c0.5-0.5,1.1-0.8,1.7-1.1c0.1-0.1,0.4-0.2,0.9-0.2
		c0.6-0.1,1-0.2,1.4-0.2c0.5,0,1,0.1,1.4,0.3c0,0,0.1,0,0.2,0c0,0,0.2,0.1,0.3,0.2c0.2,0.1,0.3,0.1,0.3,0.2c0,0,0.1,0,0.3,0
		c0.1,0,0.2,0.1,0.2,0.2c0,0,0.1,0,0.2,0c0,0,0.1,0.1,0.2,0.2c0,0,0.1,0.2,0.3,0.6c0-0.1,0.1-0.1,0.1-0.1c0,0,0-0.1,0-0.2
		c0.1,0,0.2,0,0.4,0.2c0.1,0.1,0.2,0.2,0.2,0.2C44.4,36.1,44.6,36.2,44.8,36.4z M35.1,39.6l-0.1,0l0,0.1L35.1,39.6L35.1,39.6z
		 M34.9,41.8L34.9,41.8l-0.2,0l0.1,0.1L34.9,41.8z M39.4,34.9L39.2,35l0.1,0.1L39.4,34.9L39.4,34.9z M36.1,43.7
		c-0.1,0-0.3-0.1-0.4-0.1c0,0,0.1,0.1,0.1,0.1c0.1,0,0.1,0.1,0.1,0.1c0,0,0.1-0.1,0.1-0.1C36,43.7,36.1,43.7,36.1,43.7z M41.9,38.9
		c-0.3-0.4-0.8-0.6-1.3-0.6c-0.6-0.1-1.1,0.1-1.6,0.5c-0.4,0.4-0.7,0.9-0.8,1.4c-0.1,0.6,0.1,1.1,0.4,1.5c0.2,0.2,0.4,0.4,0.8,0.5
		c0.3,0.1,0.6,0.2,0.7,0.2c0.4,0,0.7,0,0.8-0.1c0,0,0.1-0.1,0.2-0.1s0.2-0.1,0.2-0.1c0.1,0,0.1-0.1,0.2-0.2c0.1-0.1,0.1-0.1,0.1-0.1
		c0.4-0.3,0.6-0.8,0.6-1.4C42.3,39.7,42.2,39.3,41.9,38.9z M40.8,34.8L40.8,34.8l-0.1,0L40.8,34.8L40.8,34.8z M41.7,35.1L41.7,35.1
		l-0.3,0l0.1,0.1L41.7,35.1z M39.5,42.3l-0.1,0l0,0.1L39.5,42.3L39.5,42.3z M43,37.3c-0.1-0.1-0.2-0.1-0.2-0.1c0,0.1,0,0.2,0,0.2
		C42.9,37.4,43,37.4,43,37.3z M43.3,36.1c0,0,0,0.1-0.1,0.3c0.1,0,0.2,0,0.2,0c0,0,0-0.1-0.1-0.1C43.4,36.1,43.4,36.1,43.3,36.1z
		 M42.6,44.1l-0.1,0l0,0.1L42.6,44.1L42.6,44.1z M42.5,45.5l-0.1,0.1l-0.1-0.1L42.5,45.5L42.5,45.5z"/>
	<path class="st0" d="M50.9,115c0,0,24.6-20.9,45-38.9C96,76.1,79.7,96.5,50.9,115z"/>
	<path class="st0" d="M34.8,127.5c-0.3,0.8-1.2,1.1-2,0.8c-0.8-0.3-1.1-1.2-0.8-2c0.3-0.8,1.2-1.1,2-0.7
		C34.8,125.9,35.1,126.8,34.8,127.5z M32.4,126.4c-0.3,0.6,0,1.3,0.6,1.5c0.6,0.3,1.2,0,1.5-0.6c0.3-0.6,0-1.3-0.6-1.5
		C33.3,125.6,32.6,125.9,32.4,126.4z M32.9,127.5l-0.3-0.1l0.6-1.4c0.1,0,0.3,0.1,0.5,0.2c0.3,0.1,0.4,0.2,0.4,0.3
		c0.1,0.1,0.1,0.2,0,0.4c-0.1,0.2-0.3,0.2-0.4,0.2l0,0c0.1,0.1,0.1,0.2,0.1,0.4c0,0.2,0,0.3,0,0.4l-0.3-0.1c0-0.1,0-0.2,0-0.4
		c0-0.2,0-0.3-0.2-0.3l-0.1-0.1L32.9,127.5L32.9,127.5z M33.2,126.7l0.1,0.1c0.2,0.1,0.3,0.1,0.4-0.1c0.1-0.1,0-0.3-0.2-0.3
		c-0.1,0-0.2,0-0.2-0.1L33.2,126.7L33.2,126.7z"/>
</g>
</svg>
